<svg width="34" height="34" viewBox="0 0 34 34" fill="none" xmlns="http://www.w3.org/2000/svg">
<path d="M27.625 5.3125H6.375C4.61459 5.3125 3.1875 6.73959 3.1875 8.5V27.625C3.1875 29.3854 4.61459 30.8125 6.375 30.8125H27.625C29.3854 30.8125 30.8125 29.3854 30.8125 27.625V8.5C30.8125 6.73959 29.3854 5.3125 27.625 5.3125Z" stroke="#FF9670" stroke-width="2.6" stroke-linejoin="round"/>
<path d="M8.5 3.1875V5.3125M25.5 3.1875V5.3125" stroke="#FF9670" stroke-width="2.6" stroke-linecap="round" stroke-linejoin="round"/>
<path d="M12.9492 14.875H8.30078C7.824 14.875 7.4375 15.2615 7.4375 15.7383V20.3867C7.4375 20.8635 7.824 21.25 8.30078 21.25H12.9492C13.426 21.25 13.8125 20.8635 13.8125 20.3867V15.7383C13.8125 15.2615 13.426 14.875 12.9492 14.875Z" stroke="#FF9670" stroke-width="2.6" stroke-linecap="round" stroke-linejoin="round"/>
<path d="M30.8125 10.625H3.1875" stroke="#FF9670" stroke-width="2.6" stroke-linecap="round" stroke-linejoin="round"/>
</svg>
