<svg width="24" height="26" viewBox="0 0 24 26" fill="none" xmlns="http://www.w3.org/2000/svg">
<path d="M22.4335 18.6382C21.794 14.8215 19.9666 11.3039 17.2115 8.58623C16.6083 7.9994 16.3073 7.70656 15.6411 7.4359C14.975 7.16406 14.4021 7.16406 13.2576 7.16406H10.7423C9.59781 7.16406 9.02498 7.16406 8.35881 7.4359C7.69381 7.70656 7.39048 7.9994 6.78848 8.58623C4.03334 11.3039 2.20593 14.8215 1.56648 18.6382C0.998311 22.0659 4.15998 24.6641 7.69264 24.6641H16.3073C19.8411 24.6641 23.004 22.0659 22.4323 18.6382" stroke="white" stroke-width="1.5" stroke-linecap="round" stroke-linejoin="round"/>
<path d="M13.8982 14.0709C13.6462 13.1387 12.3617 12.2987 10.8205 12.9275C9.27938 13.5564 9.03555 15.5782 11.3654 15.794C12.42 15.8909 13.1061 15.6809 13.7349 16.2747C14.3649 16.8674 14.4815 18.5182 12.8727 18.9627C11.2662 19.4072 9.67372 18.713 9.50105 17.726M11.8157 11.8227V12.7105M11.8157 19.0992V19.9905M6.46655 4.1822C6.22505 3.8322 5.87622 3.3562 6.59722 3.24886C7.33805 3.13686 8.10688 3.6432 8.86055 3.63386C9.54072 3.62336 9.88722 3.3212 10.2605 2.88953C10.6525 2.4357 11.2592 1.33203 12 1.33203C12.7409 1.33203 13.3475 2.4357 13.7395 2.88953C14.1129 3.3212 14.4594 3.62453 15.1395 3.6327C15.8932 3.64436 16.6621 3.13686 17.4029 3.2477C18.1239 3.3562 17.775 3.83103 17.5335 4.18103L16.4462 5.76653C15.9795 6.4432 15.7474 6.78153 15.2597 6.97403C14.772 7.16653 14.1432 7.16536 12.8844 7.16536H11.1157C9.85572 7.16536 9.22688 7.16536 8.74038 6.97403C8.25388 6.7827 8.02055 6.44203 7.55388 5.76537L6.46655 4.1822Z" stroke="white" stroke-width="1.5" stroke-linecap="round" stroke-linejoin="round"/>
</svg>
