<svg width="15" height="15" viewBox="0 0 15 15" fill="none" xmlns="http://www.w3.org/2000/svg">
<path d="M8.46758 1.81984C8.04979 1.06005 6.95021 1.06005 6.53178 1.81984C5.98153 2.82031 5.52794 3.87103 5.17717 4.95772C5.16062 5.00023 5.13152 5.03669 5.09374 5.06224C5.05597 5.08778 5.0113 5.1012 4.96571 5.1007C4.02566 5.12514 3.08867 5.21858 2.16229 5.38025C1.30556 5.52964 0.928142 6.55807 1.57918 7.19475C1.6612 7.27511 1.74407 7.35504 1.8278 7.43455C2.455 8.0288 3.11911 8.58281 3.81615 9.09325C3.84781 9.11428 3.8718 9.14503 3.88451 9.18087C3.89722 9.21671 3.89797 9.25571 3.88663 9.29201C3.53474 10.3485 3.28329 11.4358 3.13564 12.5395C3.01389 13.4526 3.98019 14.0129 4.73439 13.6257C5.64999 13.1561 6.52546 12.6121 7.35198 11.999C7.39526 11.9684 7.44698 11.9519 7.5 11.9519C7.55302 11.9519 7.60474 11.9684 7.64802 11.999C8.47404 12.6128 9.34958 13.1569 10.2656 13.6257C11.0198 14.0129 11.9861 13.4526 11.8644 12.5395C11.7169 11.4358 11.4657 10.3485 11.114 9.29201C11.1027 9.25571 11.1034 9.21671 11.1161 9.18087C11.1288 9.14503 11.1528 9.11428 11.1845 9.09325C11.9742 8.51484 12.7216 7.8806 13.4208 7.19539C14.0719 6.55807 13.6944 5.52964 12.8377 5.38025C11.9111 5.21855 10.9739 5.12511 10.0337 5.1007C9.98817 5.10107 9.94364 5.08759 9.90599 5.06205C9.86834 5.03652 9.83934 5.00013 9.82283 4.95772C9.47317 3.87061 9.01889 2.81979 8.46758 1.81984Z" fill="#FF9670" style="fill:#FF9670;fill:color(display-p3 1.0000 0.5888 0.4392);fill-opacity:1;"/>
</svg>
