<svg width="14" height="14" viewBox="0 0 14 14" fill="none" xmlns="http://www.w3.org/2000/svg">
<path d="M13 13L9.33333 9.33333M2 6.27778C2 6.83954 2.11065 7.39581 2.32563 7.91481C2.5406 8.43382 2.8557 8.90539 3.25293 9.30262C3.65016 9.69985 4.12174 10.015 4.64074 10.2299C5.15975 10.4449 5.71601 10.5556 6.27778 10.5556C6.83954 10.5556 7.39581 10.4449 7.91481 10.2299C8.43382 10.015 8.90539 9.69985 9.30262 9.30262C9.69985 8.90539 10.015 8.43382 10.2299 7.91481C10.4449 7.39581 10.5556 6.83954 10.5556 6.27778C10.5556 5.71601 10.4449 5.15975 10.2299 4.64074C10.015 4.12174 9.69985 3.65016 9.30262 3.25293C8.90539 2.8557 8.43382 2.5406 7.91481 2.32563C7.39581 2.11065 6.83954 2 6.27778 2C5.71601 2 5.15975 2.11065 4.64074 2.32563C4.12174 2.5406 3.65016 2.8557 3.25293 3.25293C2.8557 3.65016 2.5406 4.12174 2.32563 4.64074C2.11065 5.15975 2 5.71601 2 6.27778Z" stroke="white" style="stroke:white;stroke-opacity:1;" stroke-width="1.5" stroke-linecap="round" stroke-linejoin="round"/>
</svg>
