<svg width="34" height="34" viewBox="0 0 34 34" fill="none" xmlns="http://www.w3.org/2000/svg">
<path d="M12.9668 7.66003C14.7617 4.44136 15.6584 2.83203 17 2.83203C18.3416 2.83203 19.2383 4.44136 21.0333 7.66003L21.4979 8.49303C22.0079 9.4082 22.2629 9.86578 22.6596 10.1675C23.0563 10.4693 23.5521 10.5812 24.5438 10.805L25.4448 11.009C28.9298 11.7981 30.6708 12.1919 31.0859 13.525C31.4996 14.8567 30.3124 16.2464 27.9367 19.0245L27.3218 19.7428C26.6475 20.5319 26.3089 20.9271 26.1573 21.4144C26.0058 21.9032 26.0568 22.4302 26.1588 23.4828L26.2523 24.4419C26.6107 28.1493 26.7906 30.0023 25.7054 30.8254C24.6203 31.6484 22.9883 30.8976 19.7271 29.3959L18.8813 29.0078C17.9548 28.5799 17.4916 28.3674 17 28.3674C16.5084 28.3674 16.0452 28.5799 15.1187 29.0078L14.2743 29.3959C11.0118 30.8976 9.37976 31.6484 8.29601 30.8268C7.20942 30.0023 7.38934 28.1493 7.74776 24.4419L7.84126 23.4842C7.94326 22.4302 7.99426 21.9032 7.84126 21.4159C7.69109 20.9271 7.35251 20.5319 6.67817 19.7442L6.06334 19.0245C3.68759 16.2479 2.50042 14.8581 2.91409 13.525C3.32776 12.1919 5.07167 11.7967 8.55667 11.009L9.45767 10.805C10.4479 10.5812 10.9423 10.4693 11.3404 10.1675C11.7385 9.86578 11.9921 9.4082 12.5021 8.49303L12.9668 7.66003Z" fill="#FF9670"/>
</svg>
