<svg width="34" height="34" viewBox="0 0 34 34" fill="none" xmlns="http://www.w3.org/2000/svg">
<path d="M2.83398 17.0007C2.83398 10.3225 2.83398 6.9834 4.90798 4.90798C6.98482 2.83398 10.3225 2.83398 17.0007 2.83398C23.6788 2.83398 27.0179 2.83398 29.0919 4.90798C31.1673 6.98482 31.1673 10.3225 31.1673 17.0007C31.1673 23.6788 31.1673 27.0179 29.0919 29.0919C27.0193 31.1673 23.6788 31.1673 17.0007 31.1673C10.3225 31.1673 6.9834 31.1673 4.90798 29.0919C2.83398 27.0193 2.83398 23.6788 2.83398 17.0007Z" stroke="#FF9670" stroke-width="2.6"/>
<path d="M9.91797 19.8346L13.1664 16.5862C13.4321 16.3206 13.7923 16.1714 14.168 16.1714C14.5436 16.1714 14.9039 16.3206 15.1696 16.5862L17.4164 18.8331C17.6821 19.0986 18.0423 19.2478 18.418 19.2478C18.7936 19.2478 19.1539 19.0986 19.4196 18.8331L24.0846 14.168M24.0846 14.168V17.7096M24.0846 14.168H20.543" stroke="#FF9670" stroke-width="2.6" stroke-linecap="round" stroke-linejoin="round"/>
</svg>
