<svg width="38" height="38" viewBox="0 0 38 38" fill="none" xmlns="http://www.w3.org/2000/svg">
<path d="M4.75 33.25H7.91667M7.91667 33.25H30.0833M7.91667 33.25V14.7693M33.25 33.25H30.0833M30.0833 33.25V14.7693M7.91667 14.7693C7.85747 14.7353 7.79938 14.6994 7.7425 14.6617L6.8875 14.0917C6.28307 13.6885 5.83566 13.0898 5.62031 12.3959C5.40496 11.702 5.43478 10.9551 5.70475 10.2806L7.12025 6.74025C7.35536 6.15268 7.76112 5.64904 8.28521 5.29429C8.80929 4.93954 9.42764 4.74996 10.0605 4.75H27.9395C28.5724 4.74996 29.1907 4.93954 29.7148 5.29429C30.2389 5.64904 30.6446 6.15268 30.8798 6.74025L32.2952 10.2806C32.5652 10.9551 32.595 11.702 32.3797 12.3959C32.1643 13.0898 31.7169 13.6885 31.1125 14.0917L30.2575 14.6617C30.2006 14.6994 30.1425 14.7353 30.0833 14.7693M7.91667 14.7693C8.42816 15.0648 9.01208 15.2112 9.60245 15.1922C10.1928 15.1732 10.7661 14.9894 11.2575 14.6617L14.25 12.6667L17.2425 14.6617C17.7629 15.0089 18.3744 15.1941 19 15.1941C19.6256 15.1941 20.2371 15.0089 20.7575 14.6617L23.75 12.6667L26.7425 14.6617C27.2339 14.9894 27.8072 15.1732 28.3976 15.1922C28.9879 15.2112 29.5718 15.0648 30.0833 14.7693" stroke="#FF9670" stroke-width="1.5" stroke-linecap="round" stroke-linejoin="round"/>
<path d="M22.1663 33.2474V25.3307C22.1663 24.4909 21.8327 23.6854 21.2388 23.0916C20.645 22.4977 19.8395 22.1641 18.9997 22.1641C18.1598 22.1641 17.3544 22.4977 16.7605 23.0916C16.1666 23.6854 15.833 24.4909 15.833 25.3307V33.2474" stroke="#FF9670" stroke-width="1.5"/>
</svg>
