<svg width="38" height="38" viewBox="0 0 38 38" fill="none" xmlns="http://www.w3.org/2000/svg">
<path d="M19 4.75C19.3149 4.75 19.617 4.87511 19.8397 5.09781C20.0624 5.32051 20.1875 5.62256 20.1875 5.9375V17.8125H32.0625C32.3774 17.8125 32.6795 17.9376 32.9022 18.1603C33.1249 18.383 33.25 18.6851 33.25 19C33.25 19.3149 33.1249 19.617 32.9022 19.8397C32.6795 20.0624 32.3774 20.1875 32.0625 20.1875H20.1875V32.0625C20.1875 32.3774 20.0624 32.6795 19.8397 32.9022C19.617 33.1249 19.3149 33.25 19 33.25C18.6851 33.25 18.383 33.1249 18.1603 32.9022C17.9376 32.6795 17.8125 32.3774 17.8125 32.0625V20.1875H5.9375C5.62256 20.1875 5.32051 20.0624 5.09781 19.8397C4.87511 19.617 4.75 19.3149 4.75 19C4.75 18.6851 4.87511 18.383 5.09781 18.1603C5.32051 17.9376 5.62256 17.8125 5.9375 17.8125H17.8125V5.9375C17.8125 5.62256 17.9376 5.32051 18.1603 5.09781C18.383 4.87511 18.6851 4.75 19 4.75Z" fill="white"/>
</svg>
