<svg width="38" height="38" viewBox="0 0 38 38" fill="none" xmlns="http://www.w3.org/2000/svg">
<path d="M8.89265 31.6673C8.16326 31.6673 7.55473 31.4235 7.06707 30.9358C6.5794 30.4482 6.33504 29.8391 6.33398 29.1087V8.89265C6.33398 8.16326 6.57835 7.55473 7.06707 7.06707C7.55579 6.5794 8.16432 6.33504 8.89265 6.33398H19.0307V7.91732H8.89265C8.64882 7.91732 8.42504 8.01865 8.22132 8.22132C8.0176 8.42398 7.91626 8.64776 7.91732 8.89265V29.1102C7.91732 29.353 8.01865 29.5763 8.22132 29.78C8.42398 29.9837 8.64723 30.085 8.89107 30.084H19.0307V31.6673H8.89265ZM26.0655 24.6041L24.954 23.4641L28.6257 19.7923H14.5547V18.209H28.6257L24.9524 14.5357L26.0639 13.3988L31.6673 19.0007L26.0655 24.6041Z" fill="black"/>
</svg>
