<svg width="38" height="38" viewBox="0 0 38 38" fill="none" xmlns="http://www.w3.org/2000/svg">
<path d="M33.1597 26.658C32.2919 21.4782 29.8118 16.7042 26.0727 13.016C25.2541 12.2196 24.8456 11.8222 23.9416 11.4549C23.0375 11.0859 22.2601 11.0859 20.7068 11.0859H17.2931C15.7399 11.0859 14.9625 11.0859 14.0584 11.4549C13.1559 11.8222 12.7442 12.2196 11.9272 13.016C8.18811 16.7042 5.70804 21.4782 4.84022 26.658C4.06914 31.3099 8.35997 34.8359 13.1543 34.8359H24.8456C29.6416 34.8359 33.934 31.3099 33.1581 26.658" stroke="#2E2E3A" stroke-width="1.5" stroke-linecap="round" stroke-linejoin="round"/>
<path d="M21.576 20.4564C21.234 19.1913 19.4908 18.0513 17.3992 18.9047C15.3076 19.7581 14.9767 22.5021 18.1386 22.795C19.57 22.9264 20.501 22.6414 21.3544 23.4473C22.2094 24.2516 22.3677 26.4921 20.1843 27.0953C18.004 27.6986 15.8428 26.7565 15.6085 25.417M18.7498 17.4053V18.6102M18.7498 27.2806V28.4902M11.4902 7.03605C11.1625 6.56105 10.689 5.91505 11.6675 5.76939C12.673 5.61739 13.7164 6.30455 14.7392 6.29189C15.6623 6.27764 16.1325 5.86755 16.6392 5.28172C17.1712 4.6658 17.9945 3.16797 19 3.16797C20.0054 3.16797 20.8287 4.6658 21.3607 5.28172C21.8674 5.86755 22.3376 6.27922 23.2607 6.2903C24.2835 6.30614 25.327 5.61739 26.3324 5.7678C27.3109 5.91505 26.8375 6.55947 26.5097 7.03447L25.034 9.18622C24.4007 10.1046 24.0856 10.5637 23.4238 10.825C22.762 11.0862 21.9085 11.0846 20.2001 11.0846H17.7998C16.0898 11.0846 15.2364 11.0846 14.5761 10.825C13.9159 10.5653 13.5992 10.103 12.9659 9.18464L11.4902 7.03605Z" stroke="#2E2E3A" stroke-width="1.5" stroke-linecap="round" stroke-linejoin="round"/>
</svg>
