<svg width="38" height="38" viewBox="0 0 38 38" fill="none" xmlns="http://www.w3.org/2000/svg">
<path d="M33.1597 26.6502C32.2919 21.4704 29.8118 16.6964 26.0727 13.0082C25.2541 12.2118 24.8456 11.8144 23.9416 11.447C23.0375 11.0781 22.2601 11.0781 20.7068 11.0781H17.2931C15.7399 11.0781 14.9625 11.0781 14.0584 11.447C13.1559 11.8144 12.7442 12.2118 11.9272 13.0082C8.18811 16.6964 5.70804 21.4704 4.84022 26.6502C4.06914 31.302 8.35997 34.8281 13.1543 34.8281H24.8456C29.6416 34.8281 33.934 31.302 33.1581 26.6502" stroke="white" stroke-width="1.5" stroke-linecap="round" stroke-linejoin="round"/>
<path d="M21.576 20.4525C21.234 19.1874 19.4908 18.0474 17.3992 18.9008C15.3076 19.7542 14.9767 22.4981 18.1386 22.7911C19.57 22.9225 20.501 22.6375 21.3544 23.4434C22.2094 24.2477 22.3677 26.4881 20.1843 27.0914C18.004 27.6946 15.8428 26.7526 15.6085 25.4131M18.7498 17.4014V18.6063M18.7498 27.2766V28.4863M11.4902 7.03215C11.1625 6.55715 10.689 5.91115 11.6675 5.76548C12.673 5.61348 13.7164 6.30065 14.7392 6.28798C15.6623 6.27373 16.1325 5.86365 16.6392 5.27781C17.1712 4.6619 17.9945 3.16406 19 3.16406C20.0054 3.16406 20.8287 4.6619 21.3607 5.27781C21.8674 5.86365 22.3376 6.27531 23.2607 6.2864C24.2835 6.30223 25.327 5.61348 26.3324 5.7639C27.3109 5.91115 26.8375 6.55556 26.5097 7.03056L25.034 9.18231C24.4007 10.1006 24.0856 10.5598 23.4238 10.8211C22.762 11.0823 21.9085 11.0807 20.2001 11.0807H17.7998C16.0898 11.0807 15.2364 11.0807 14.5761 10.8211C13.9159 10.5614 13.5992 10.0991 12.9659 9.18073L11.4902 7.03215Z" stroke="white" stroke-width="1.5" stroke-linecap="round" stroke-linejoin="round"/>
</svg>
