<svg width="38" height="38" viewBox="0 0 38 38" fill="none" xmlns="http://www.w3.org/2000/svg">
<path d="M17.2457 19.0013L10.5229 12.2785C10.3751 12.1307 10.2959 11.9491 10.2854 11.7338C10.2748 11.5185 10.354 11.3264 10.5229 11.1575C10.6918 10.9886 10.8786 10.9041 11.0834 10.9041C11.2881 10.9041 11.475 10.9886 11.6439 11.1575L18.5915 18.1067C18.7298 18.2439 18.8269 18.3864 18.8829 18.5342C18.9388 18.6799 18.9668 18.8366 18.9668 19.0045C18.9668 19.1723 18.9388 19.3285 18.8829 19.4731C18.8269 19.6177 18.7298 19.7592 18.5915 19.8975L11.6439 26.8451C11.4961 26.9929 11.314 27.0721 11.0976 27.0826C10.8833 27.0932 10.6918 27.014 10.5229 26.8451C10.354 26.6762 10.2695 26.4894 10.2695 26.2846C10.2695 26.0799 10.354 25.893 10.5229 25.7241L17.2457 19.0013ZM26.9183 10.293C27.1421 10.293 27.3299 10.369 27.4819 10.521C27.6339 10.673 27.7094 10.8609 27.7084 11.0846V26.918C27.7084 27.1428 27.6324 27.3307 27.4804 27.4816C27.3284 27.6326 27.1399 27.7086 26.9151 27.7096C26.6903 27.7107 26.5024 27.6347 26.3514 27.4816C26.2005 27.3286 26.125 27.1407 26.125 26.918V11.0846C26.125 10.8598 26.201 10.6719 26.353 10.521C26.505 10.37 26.6934 10.294 26.9183 10.293Z" fill="black"/>
</svg>
