<svg width="38" height="38" viewBox="0 0 38 38" fill="none" xmlns="http://www.w3.org/2000/svg">
<path d="M17.2457 18.9974L10.5229 12.2746C10.3751 12.1268 10.2959 11.9452 10.2854 11.7299C10.2748 11.5146 10.354 11.3225 10.5229 11.1536C10.6918 10.9847 10.8786 10.9002 11.0834 10.9002C11.2881 10.9002 11.475 10.9847 11.6439 11.1536L18.5915 18.1028C18.7298 18.24 18.8269 18.3825 18.8829 18.5303C18.9388 18.676 18.9668 18.8327 18.9668 19.0006C18.9668 19.1684 18.9388 19.3246 18.8829 19.4692C18.8269 19.6138 18.7298 19.7553 18.5915 19.8936L11.6439 26.8412C11.4961 26.989 11.314 27.0682 11.0976 27.0787C10.8833 27.0893 10.6918 27.0101 10.5229 26.8412C10.354 26.6723 10.2695 26.4855 10.2695 26.2807C10.2695 26.076 10.354 25.8891 10.5229 25.7202L17.2457 18.9974ZM26.9183 10.2891C27.1421 10.2891 27.3299 10.3651 27.4819 10.5171C27.6339 10.6691 27.7094 10.857 27.7084 11.0807V26.9141C27.7084 27.1389 27.6324 27.3268 27.4804 27.4777C27.3284 27.6287 27.1399 27.7047 26.9151 27.7057C26.6903 27.7068 26.5024 27.6308 26.3514 27.4777C26.2005 27.3247 26.125 27.1368 26.125 26.9141V11.0807C26.125 10.8559 26.201 10.668 26.353 10.5171C26.505 10.3661 26.6934 10.2901 26.9183 10.2891Z" fill="white"/>
</svg>
