<svg width="38" height="38" viewBox="0 0 38 38" fill="none" xmlns="http://www.w3.org/2000/svg">
<path d="M19.0002 3.79688C16.9845 3.79688 15.0515 4.59759 13.6262 6.02286C12.2009 7.44814 11.4002 9.38123 11.4002 11.3969C11.4002 13.4125 12.2009 15.3456 13.6262 16.7709C15.0515 18.1962 16.9845 18.9969 19.0002 18.9969C21.0158 18.9969 22.9489 18.1962 24.3742 16.7709C25.7995 15.3456 26.6002 13.4125 26.6002 11.3969C26.6002 9.38123 25.7995 7.44814 24.3742 6.02286C22.9489 4.59759 21.0158 3.79688 19.0002 3.79688ZM13.3002 11.3969C13.3002 9.88514 13.9007 8.43532 14.9697 7.36637C16.0386 6.29741 17.4885 5.69687 19.0002 5.69687C20.5119 5.69687 21.9617 6.29741 23.0307 7.36637C24.0997 8.43532 24.7002 9.88514 24.7002 11.3969C24.7002 12.9086 24.0997 14.3584 23.0307 15.4274C21.9617 16.4963 20.5119 17.0969 19.0002 17.0969C17.4885 17.0969 16.0386 16.4963 14.9697 15.4274C13.9007 14.3584 13.3002 12.9086 13.3002 11.3969ZM9.51729 20.8969C9.01683 20.8946 8.52086 20.9912 8.05785 21.1812C7.59483 21.3712 7.1739 21.6507 6.81923 22.0038C6.46455 22.3569 6.18312 22.7766 5.99108 23.2387C5.79904 23.7009 5.70019 24.1964 5.7002 24.6969C5.7002 27.9098 7.2829 30.3323 9.7567 31.9112C12.1925 33.4635 15.4757 34.1969 19.0002 34.1969C22.5247 34.1969 25.8079 33.4635 28.2437 31.9112C30.7175 30.3342 32.3002 27.9079 32.3002 24.6969C32.3002 23.6891 31.8998 22.7225 31.1872 22.0099C30.4746 21.2972 29.508 20.8969 28.5002 20.8969H9.51729ZM7.6002 24.6969C7.6002 23.6462 8.4514 22.7969 9.51729 22.7969H28.5002C29.0041 22.7969 29.4874 22.9971 29.8437 23.3534C30.2 23.7097 30.4002 24.193 30.4002 24.6969C30.4002 27.184 29.2184 29.0365 27.2215 30.3076C25.1885 31.6053 22.2967 32.2969 19.0002 32.2969C15.7037 32.2969 12.8119 31.6053 10.7789 30.3076C8.7839 29.0346 7.6002 27.1859 7.6002 24.6969Z" fill="white"/>
</svg>
