<svg width="38" height="38" viewBox="0 0 38 38" fill="none" xmlns="http://www.w3.org/2000/svg">
<path d="M19.0002 3.80078C16.9845 3.80078 15.0515 4.60149 13.6262 6.02677C12.2009 7.45205 11.4002 9.38514 11.4002 11.4008C11.4002 13.4164 12.2009 15.3495 13.6262 16.7748C15.0515 18.2001 16.9845 19.0008 19.0002 19.0008C21.0158 19.0008 22.9489 18.2001 24.3742 16.7748C25.7995 15.3495 26.6002 13.4164 26.6002 11.4008C26.6002 9.38514 25.7995 7.45205 24.3742 6.02677C22.9489 4.60149 21.0158 3.80078 19.0002 3.80078ZM13.3002 11.4008C13.3002 9.88905 13.9007 8.43923 14.9697 7.37027C16.0386 6.30132 17.4885 5.70078 19.0002 5.70078C20.5119 5.70078 21.9617 6.30132 23.0307 7.37027C24.0997 8.43923 24.7002 9.88905 24.7002 11.4008C24.7002 12.9125 24.0997 14.3623 23.0307 15.4313C21.9617 16.5002 20.5119 17.1008 19.0002 17.1008C17.4885 17.1008 16.0386 16.5002 14.9697 15.4313C13.9007 14.3623 13.3002 12.9125 13.3002 11.4008ZM9.51729 20.9008C9.01683 20.8985 8.52086 20.9952 8.05785 21.1851C7.59483 21.3751 7.1739 21.6546 6.81923 22.0077C6.46455 22.3608 6.18312 22.7805 5.99108 23.2426C5.79904 23.7048 5.70019 24.2003 5.7002 24.7008C5.7002 27.9137 7.2829 30.3362 9.7567 31.9151C12.1925 33.4674 15.4757 34.2008 19.0002 34.2008C22.5247 34.2008 25.8079 33.4674 28.2437 31.9151C30.7175 30.3381 32.3002 27.9118 32.3002 24.7008C32.3002 23.693 31.8998 22.7264 31.1872 22.0138C30.4746 21.3011 29.508 20.9008 28.5002 20.9008H9.51729ZM7.6002 24.7008C7.6002 23.6501 8.4514 22.8008 9.51729 22.8008H28.5002C29.0041 22.8008 29.4874 23.001 29.8437 23.3573C30.2 23.7136 30.4002 24.1969 30.4002 24.7008C30.4002 27.1879 29.2184 29.0404 27.2215 30.3115C25.1885 31.6092 22.2967 32.3008 19.0002 32.3008C15.7037 32.3008 12.8119 31.6092 10.7789 30.3115C8.7839 29.0385 7.6002 27.1898 7.6002 24.7008Z" fill="#2E2E3A"/>
</svg>
