<svg width="8" height="8" viewBox="0 0 8 8" fill="none" xmlns="http://www.w3.org/2000/svg">
<path d="M4 7C3.585 7 3.195 6.9212 2.83 6.7636C2.465 6.606 2.1475 6.3923 1.8775 6.1225C1.6075 5.8527 1.3938 5.5352 1.2364 5.17C1.079 4.8048 1.0002 4.4148 1 4C0.9998 3.5852 1.0786 3.1952 1.2364 2.83C1.3942 2.4648 1.6079 2.1473 1.8775 1.8775C2.1471 1.6077 2.4646 1.394 2.83 1.2364C3.1954 1.0788 3.5854 1 4 1C4.4146 1 4.8046 1.0788 5.17 1.2364C5.5354 1.394 5.8529 1.6077 6.1225 1.8775C6.3921 2.1473 6.6059 2.4648 6.7639 2.83C6.9219 3.1952 7.0006 3.5852 7 4C6.9994 4.4148 6.9206 4.8048 6.7636 5.17C6.6066 5.5352 6.3929 5.8527 6.1225 6.1225C5.8521 6.3923 5.5346 6.6061 5.17 6.7639C4.8054 6.9217 4.4154 7.0004 4 7Z" fill="#FF9670"/>
</svg>
