<svg width="110" height="100" viewBox="0 0 110 100" fill="none" xmlns="http://www.w3.org/2000/svg">
<path d="M46.45 87.95C45.3833 87.95 44.4333 87.6333 43.6 87C42.8 86.4 42.4 85.2667 42.4 83.6V77.3H17.35C16.4167 77.3 15.65 77.2 15.05 77C14.45 76.8 13.9833 76.55 13.65 76.25C13.3167 75.9167 13.0833 75.55 12.95 75.15C12.85 74.7167 12.8 74.3 12.8 73.9C12.8 73.4 12.85 72.95 12.95 72.55C13.0833 72.1167 13.3167 71.75 13.65 71.45C13.9833 71.1167 14.45 70.8667 15.05 70.7C15.65 70.5 16.4167 70.4 17.35 70.4H46.75C47.6833 70.4 48.4 70.5 48.9 70.7C49.4333 70.8667 49.8167 71.1167 50.05 71.45C50.2833 71.75 50.4167 72.1167 50.45 72.55C50.4833 72.95 50.5 73.4 50.5 73.9V83.6C50.5 84.4333 50.3833 85.1333 50.15 85.7C49.9167 86.2667 49.6167 86.7167 49.25 87.05C48.8833 87.3833 48.45 87.6167 47.95 87.75C47.4833 87.8833 46.9833 87.95 46.45 87.95ZM15.3 66.95C14.3667 66.95 13.6333 66.8667 13.1 66.7C12.5667 66.5 12.15 66.25 11.85 65.95C11.5833 65.6167 11.4167 65.25 11.35 64.85C11.2833 64.4167 11.25 63.95 11.25 63.45V49.1C11.25 48.4667 11.2833 47.9 11.35 47.4C11.4167 46.8667 11.5833 46.4333 11.85 46.1C12.15 45.7333 12.5667 45.4667 13.1 45.3C13.6333 45.1 14.3667 45 15.3 45H19.8C21.4333 45 22.5167 45.35 23.05 46.05C23.5833 46.7167 23.85 47.5333 23.85 48.5C23.85 48.9 23.7833 49.3 23.65 49.7C23.55 50.1 23.35 50.4667 23.05 50.8C22.75 51.1 22.3333 51.35 21.8 51.55C21.2667 51.7167 20.6 51.8 19.8 51.8H18.35V60.15H20.8C21.6 60.15 22.2667 60.25 22.8 60.45C23.3333 60.6167 23.75 60.8667 24.05 61.2C24.35 61.5 24.55 61.85 24.65 62.25C24.7833 62.65 24.85 63.05 24.85 63.45C24.85 64.4167 24.5833 65.25 24.05 65.95C23.5167 66.6167 22.4333 66.95 20.8 66.95H15.3ZM30.35 66.95C29.4167 66.95 28.6833 66.8667 28.15 66.7C27.6167 66.5 27.2 66.25 26.9 65.95C26.6333 65.6167 26.4667 65.25 26.4 64.85C26.3333 64.4167 26.3 63.95 26.3 63.45V49.1C26.3 48.4667 26.3333 47.9 26.4 47.4C26.4667 46.8667 26.6333 46.4333 26.9 46.1C27.2 45.7333 27.6167 45.4667 28.15 45.3C28.6833 45.1 29.4167 45 30.35 45H34.6C36.2333 45 37.3167 45.35 37.85 46.05C38.3833 46.7167 38.65 47.5333 38.65 48.5C38.65 48.9 38.5833 49.3 38.45 49.7C38.35 50.1 38.15 50.4667 37.85 50.8C37.55 51.1 37.1333 51.35 36.6 51.55C36.0667 51.7167 35.4 51.8 34.6 51.8H33.4V60.15H35.6C36.4 60.15 37.0667 60.25 37.6 60.45C38.1333 60.6167 38.55 60.8667 38.85 61.2C39.15 61.5 39.35 61.85 39.45 62.25C39.5833 62.65 39.65 63.05 39.65 63.45C39.65 64.4167 39.3833 65.25 38.85 65.95C38.3167 66.6167 37.2333 66.95 35.6 66.95H30.35ZM46.4 68.4C45.8667 68.4 45.3667 68.3333 44.9 68.2C44.4333 68.0667 44.0167 67.8333 43.65 67.5C43.3167 67.1667 43.0333 66.7167 42.8 66.15C42.6 65.5833 42.5 64.8667 42.5 64V48.85C42.5 47.1833 42.8833 46.05 43.65 45.45C44.4167 44.8167 45.3333 44.5 46.4 44.5C47.4333 44.5 48.3 44.8167 49 45.45C49.7333 46.05 50.1 47.1833 50.1 48.85V52.65H52.15C53.0833 52.65 53.85 52.7667 54.45 53C55.05 53.2 55.5167 53.4667 55.85 53.8C56.1833 54.1333 56.4 54.5167 56.5 54.95C56.6333 55.35 56.7 55.75 56.7 56.15C56.7 56.65 56.6333 57.1167 56.5 57.55C56.4 57.9833 56.1833 58.3667 55.85 58.7C55.5167 59 55.05 59.25 54.45 59.45C53.85 59.65 53.0833 59.75 52.15 59.75H50.1V64C50.1 65.7333 49.75 66.9 49.05 67.5C48.35 68.1 47.4667 68.4 46.4 68.4ZM90.8098 66.95C89.9764 66.6833 89.3431 66.2167 88.9098 65.55C88.4764 64.8833 88.3764 64.0333 88.6098 63L88.7598 62.2H65.7098C64.7764 62.2 64.0098 62.1333 63.4098 62C62.8098 61.8333 62.3431 61.6167 62.0098 61.35C61.6764 61.05 61.4431 60.7 61.3098 60.3C61.2098 59.9 61.1598 59.45 61.1598 58.95C61.1598 58.55 61.2098 58.1667 61.3098 57.8C61.4431 57.4 61.6764 57.05 62.0098 56.75C62.3431 56.45 62.8098 56.2167 63.4098 56.05C64.0098 55.8833 64.7764 55.8 65.7098 55.8H89.6598V51.6H66.7598C65.8264 51.6 65.0598 51.5167 64.4598 51.35C63.8598 51.1833 63.3931 50.95 63.0598 50.65C62.7264 50.35 62.4931 50 62.3598 49.6C62.2598 49.2 62.2098 48.75 62.2098 48.25C62.2098 47.85 62.2598 47.45 62.3598 47.05C62.4931 46.65 62.7264 46.3 63.0598 46C63.3931 45.7 63.8598 45.4667 64.4598 45.3C65.0598 45.1 65.8264 45 66.7598 45H94.1098C95.0098 45 95.7098 45.1 96.2098 45.3C96.7098 45.4667 97.0931 45.7167 97.3598 46.05C97.6264 46.35 97.7931 46.7333 97.8598 47.2C97.9264 47.6667 97.9598 48.2 97.9598 48.8V53.8C97.9598 54.6333 97.9264 55.5667 97.8598 56.6C97.7931 57.6333 97.6764 58.6833 97.5098 59.75C97.3764 60.8167 97.1764 61.85 96.9098 62.85C96.6431 63.85 96.2764 64.7333 95.8098 65.5C95.5431 65.9667 95.1931 66.3333 94.7598 66.6C94.3598 66.8667 93.9264 67.05 93.4598 67.15C93.0264 67.25 92.5764 67.2833 92.1098 67.25C91.6431 67.1833 91.2098 67.0833 90.8098 66.95ZM80.2598 87.4C79.7264 87.4 79.2098 87.3333 78.7098 87.2C78.2431 87.0667 77.8098 86.8333 77.4098 86.5C77.0431 86.1667 76.7431 85.7167 76.5098 85.15C76.3098 84.5833 76.2098 83.8667 76.2098 83V75.95H62.8598C61.9264 75.95 61.1598 75.85 60.5598 75.65C59.9598 75.45 59.4931 75.2 59.1598 74.9C58.8264 74.5667 58.5931 74.2 58.4598 73.8C58.3598 73.3667 58.3098 72.95 58.3098 72.55C58.3098 72.05 58.3598 71.6 58.4598 71.2C58.5931 70.7667 58.8264 70.4 59.1598 70.1C59.4931 69.7667 59.9598 69.5167 60.5598 69.35C61.1598 69.15 61.9264 69.05 62.8598 69.05H97.6098C98.5431 69.05 99.3098 69.15 99.9098 69.35C100.51 69.5167 100.976 69.7667 101.31 70.1C101.643 70.4 101.86 70.7667 101.96 71.2C102.093 71.6 102.16 72.05 102.16 72.55C102.16 72.95 102.093 73.3667 101.96 73.8C101.86 74.2 101.643 74.5667 101.31 74.9C100.976 75.2 100.51 75.45 99.9098 75.65C99.3098 75.85 98.5431 75.95 97.6098 75.95H84.3098V83C84.3098 83.8667 84.1931 84.5833 83.9598 85.15C83.7264 85.7167 83.4264 86.1667 83.0598 86.5C82.6931 86.8333 82.2598 87.0667 81.7598 87.2C81.2931 87.3333 80.7931 87.4 80.2598 87.4Z" fill="#FF9670"/>
<rect x="22.5" y="12.5" width="64" height="22" rx="3.5" fill="white"/>
<rect x="22.5" y="12.5" width="64" height="22" rx="3.5" stroke="#FF9670"/>
<path d="M36.89 22.04V24.15H35.57V18.64H36.89V20.96H37.9V22.04H36.89ZM35.21 23.5C35.0567 23.54 34.9067 23.5733 34.76 23.6C34.6133 23.62 34.4533 23.6367 34.28 23.65C34.1133 23.6567 33.9233 23.6633 33.71 23.67C33.4967 23.67 33.25 23.67 32.97 23.67H32.48V19.38H34.93V20.43H33.73V22.58C34.0233 22.5733 34.2733 22.56 34.48 22.54C34.6867 22.52 34.8967 22.4833 35.11 22.43L35.21 23.5ZM32.21 23.51C32.0233 23.55 31.8433 23.58 31.67 23.6C31.5033 23.62 31.3367 23.6367 31.17 23.65C31.0033 23.6567 30.8333 23.6633 30.66 23.67C30.4867 23.67 30.3033 23.67 30.11 23.67H29.64V19.38H32.02V20.43H30.89V22.58C31.09 22.5667 31.29 22.55 31.49 22.53C31.69 22.51 31.8967 22.48 32.11 22.44L32.21 23.51ZM36.89 24.52V27.87H35.56V25.56H30.53V24.52H36.89ZM48.5248 27.86H47.2048V18.65H48.5248V27.86ZM44.4548 21.13C44.4548 21.5033 44.5015 21.88 44.5948 22.26C44.6882 22.6333 44.8282 22.9867 45.0148 23.32C45.2082 23.6533 45.4448 23.9533 45.7248 24.22C46.0115 24.4867 46.3482 24.7 46.7348 24.86L46.0148 25.9C45.4748 25.6667 45.0215 25.34 44.6548 24.92C44.2948 24.4933 44.0115 23.9967 43.8048 23.43C43.5982 24.0367 43.3082 24.5767 42.9348 25.05C42.5682 25.5233 42.1148 25.8833 41.5748 26.13L40.8248 25.08C41.2115 24.9067 41.5482 24.6767 41.8348 24.39C42.1215 24.1033 42.3582 23.7867 42.5448 23.44C42.7382 23.0867 42.8815 22.7133 42.9748 22.32C43.0682 21.92 43.1148 21.5233 43.1148 21.13V20.62H41.1948V19.53H46.3548V20.62H44.4548V21.13ZM58.4341 23.43H50.0941V22.38H55.9341C56.0274 21.92 56.0874 21.5067 56.1141 21.14C56.1407 20.7733 56.1541 20.43 56.1541 20.11H51.1241V19.06H57.4541V19.8C57.4541 20.1733 57.4441 20.5633 57.4241 20.97C57.4107 21.3767 57.3507 21.8467 57.2441 22.38H58.4341V23.43ZM57.4141 24.39V27.75H51.0741V24.39H57.4141ZM56.1241 26.72V25.42H52.3741V26.72H56.1241ZM66.3789 24.58V27.84H65.0589V24.58H61.5689V23.51H67.3689C67.4222 23.27 67.4656 23.04 67.4989 22.82C67.5389 22.5933 67.5722 22.3767 67.5989 22.17L62.3789 22.44L62.2289 21.32L67.6889 21.15C67.7022 20.9833 67.7089 20.8233 67.7089 20.67V20.21H62.5289V19.16H68.9789V19.99C68.9789 20.4633 68.9656 20.9833 68.9389 21.55C68.9122 22.11 68.8222 22.7633 68.6689 23.51H69.8889V24.58H66.3789ZM79.0781 24.51H70.7581V23.46H74.2481V22.63H71.5481V21.59H72.6581V20.04H71.4881V18.99H78.3381V20.04H77.1681V21.59H78.2681V22.63H75.5681V23.46H79.0781V24.51ZM75.8581 21.59V20.04H73.9681V21.59H75.8581ZM78.1481 26.65V27.7H71.7681V25.1H73.0881V26.65H78.1481Z" fill="#FF9670"/>
<g clip-path="url(#clip0_1014_9369)">
<path d="M60 33.5L60.0723 33.5049C60.237 33.5289 60.3812 33.6345 60.4531 33.7881C60.5353 33.9637 60.5079 34.1713 60.3838 34.3203L55.3838 40.3203C55.2888 40.4341 55.1483 40.5 55 40.5C54.8517 40.5 54.7112 40.4341 54.6162 40.3203L49.6162 34.3203C49.4921 34.1713 49.4647 33.9637 49.5469 33.7881C49.6292 33.6124 49.806 33.5 50 33.5H60Z" fill="white" stroke="#FF9670" stroke-linejoin="round"/>
</g>
<defs>
<clipPath id="clip0_1014_9369">
<rect width="64" height="8" fill="white" transform="translate(23 34)"/>
</clipPath>
</defs>
</svg>
