<svg width="38" height="38" viewBox="0 0 38 38" fill="none" xmlns="http://www.w3.org/2000/svg">
<path d="M18.9992 3.79688C16.9836 3.79688 15.0505 4.59759 13.6252 6.02286C12.1999 7.44814 11.3992 9.38123 11.3992 11.3969C11.3992 13.4125 12.1999 15.3456 13.6252 16.7709C15.0505 18.1962 16.9836 18.9969 18.9992 18.9969C21.0149 18.9969 22.948 18.1962 24.3732 16.7709C25.7985 15.3456 26.5992 13.4125 26.5992 11.3969C26.5992 9.38123 25.7985 7.44814 24.3732 6.02286C22.948 4.59759 21.0149 3.79688 18.9992 3.79688ZM13.2992 11.3969C13.2992 9.88514 13.8998 8.43532 14.9687 7.36637C16.0377 6.29741 17.4875 5.69687 18.9992 5.69687C20.511 5.69687 21.9608 6.29741 23.0297 7.36637C24.0987 8.43532 24.6992 9.88514 24.6992 11.3969C24.6992 12.9086 24.0987 14.3584 23.0297 15.4274C21.9608 16.4963 20.511 17.0969 18.9992 17.0969C17.4875 17.0969 16.0377 16.4963 14.9687 15.4274C13.8998 14.3584 13.2992 12.9086 13.2992 11.3969ZM9.51632 20.8969C9.01586 20.8946 8.51988 20.9912 8.05687 21.1812C7.59386 21.3712 7.17293 21.6507 6.81825 22.0038C6.46358 22.3569 6.18214 22.7766 5.9901 23.2387C5.79807 23.7009 5.69921 24.1964 5.69922 24.6969C5.69922 27.9098 7.28192 30.3323 9.75572 31.9112C12.1915 33.4635 15.4747 34.1969 18.9992 34.1969C22.5237 34.1969 25.8069 33.4635 28.2427 31.9112C30.7165 30.3342 32.2992 27.9079 32.2992 24.6969C32.2992 23.6891 31.8989 22.7225 31.1862 22.0099C30.4736 21.2972 29.507 20.8969 28.4992 20.8969H9.51632ZM7.59922 24.6969C7.59922 23.6462 8.45042 22.7969 9.51632 22.7969H28.4992C29.0031 22.7969 29.4864 22.9971 29.8427 23.3534C30.199 23.7097 30.3992 24.193 30.3992 24.6969C30.3992 27.184 29.2174 29.0365 27.2205 30.3076C25.1875 31.6053 22.2957 32.2969 18.9992 32.2969C15.7027 32.2969 12.8109 31.6053 10.7779 30.3076C8.78292 29.0346 7.59922 27.1859 7.59922 24.6969Z" fill="#FF9670"/>
</svg>
