<svg width="34" height="34" viewBox="0 0 34 34" fill="none" xmlns="http://www.w3.org/2000/svg">
<path d="M29.6692 23.847C28.8927 19.2124 26.6737 14.941 23.3282 11.641C22.5958 10.9284 22.2303 10.5728 21.4214 10.2441C20.6125 9.91406 19.9169 9.91406 18.5271 9.91406H15.4728C14.0831 9.91406 13.3875 9.91406 12.5786 10.2441C11.7711 10.5728 11.4027 10.9284 10.6717 11.641C7.3262 14.941 5.1072 19.2124 4.33072 23.847C3.64081 28.0091 7.47997 31.1641 11.7696 31.1641H22.2303C26.5214 31.1641 30.362 28.0091 29.6678 23.847" stroke="#FF4400" stroke-width="1.5" stroke-linecap="round" stroke-linejoin="round"/>
<path d="M19.3045 18.3006C18.9985 17.1687 17.4388 16.1487 15.5674 16.9123C13.6959 17.6759 13.3999 20.1309 16.2289 20.393C17.5096 20.5106 18.3426 20.2556 19.1062 20.9767C19.8712 21.6964 20.0129 23.7009 18.0593 24.2407C16.1085 24.7804 14.1748 23.9375 13.9651 22.739M16.7758 15.5707V16.6488M16.7758 24.4064V25.4888M10.2804 6.29295C9.98711 5.86795 9.56352 5.28995 10.439 5.15961C11.3386 5.02361 12.2722 5.63845 13.1874 5.62711C14.0133 5.61436 14.434 5.24745 14.8874 4.72328C15.3634 4.1722 16.1 2.83203 16.9996 2.83203C17.8992 2.83203 18.6359 4.1722 19.1119 4.72328C19.5652 5.24745 19.9859 5.61578 20.8119 5.6257C21.727 5.63986 22.6606 5.02361 23.5602 5.1582C24.4357 5.28995 24.0121 5.86653 23.7189 6.29153L22.3985 8.21678C21.8319 9.03845 21.5499 9.44928 20.9578 9.68303C20.3656 9.91678 19.602 9.91536 18.0734 9.91536H15.9258C14.3958 9.91536 13.6322 9.91536 13.0414 9.68303C12.4507 9.4507 12.1674 9.03703 11.6007 8.21536L10.2804 6.29295Z" stroke="#FF4400" stroke-width="1.5" stroke-linecap="round" stroke-linejoin="round"/>
</svg>
